# xmcd
# Track frame offsets:
# 150
# 19333
# 41139
# 58322
# 81191
# 104616
# 130010
# 149350
# 167385
# 189898
# 208852
# 228281
# 248612
# 270510
#
# Disc length: 3863 seconds
# Revision: 0
# Processed by: cddbd v1.4PL0 Copyright (c) Steve Scherf et al.
# Submitted via: VisiTrax 2.9.5.181 - For more info visit www.synapsa.com
#
DISCID=c00f150e
DTITLE=Rue Davis - Dapp Daddy
DYEAR=2003
DGENRE=Blues
TTITLE0=Take Me Back To Farish St.
TTITLE1=(We Were) Taylor Made
TTITLE2=This Young Thang Ain't For Sale
TTITLE3=A Lonely Man
TTITLE4=So Fine, So Cool, and You're Beautiful
TTITLE5=Johnny, You Were Our Friend
TTITLE6=Just Ask Me
TTITLE7=I'm So Glad
TTITLE8=Let Me Lay You Down
TTITLE9=& Pump It, Shake
TTITLE10=24 Hour Lover
TTITLE11=Set You Free
TTITLE12=Dapp Daddy
TTITLE13=You Set Me Up
EXTD=
EXTT0=
EXTT1=
EXTT2=
EXTT3=
EXTT4=
EXTT5=
EXTT6=
EXTT7=
EXTT8=
EXTT9=
EXTT10=
EXTT11=
EXTT12=
EXTT13=
PLAYORDER=
